<?xml version="1.0" encoding="utf-8"?><svg xmlns="http://www.w3.org/2000/svg" xmlns:xlink="http://www.w3.org/1999/xlink"><symbol viewBox="0 0 68 68" id="battery"><path d="M46.536 8H40V4H28v4h-6.536A3.468 3.468 0 0 0 18 11.464v49.072A3.468 3.468 0 0 0 21.464 64h25.072A3.468 3.468 0 0 0 50 60.536V11.464A3.468 3.468 0 0 0 46.536 8zM20 23h28v12H20V23zm0 14h28v12H20V37zM30 6h8v2h-8V6zm-8.536 4h25.072c.808 0 1.464.656 1.464 1.464V21H20v-9.536c0-.808.656-1.464 1.464-1.464zm25.072 52H21.464A1.465 1.465 0 0 1 20 60.536V51h28v9.536c0 .808-.656 1.464-1.464 1.464z"/></symbol><symbol viewBox="0 0 52 52" id="battery-main"><path d="M34.283 6H17.717A3.32 3.32 0 0 0 14.4 9.317v37.366A3.32 3.32 0 0 0 17.717 50h16.566a3.32 3.32 0 0 0 3.317-3.317V9.317A3.32 3.32 0 0 0 34.283 6zM36 46.683a1.72 1.72 0 0 1-1.717 1.717H17.717A1.72 1.72 0 0 1 16 46.683V9.317c0-.947.77-1.717 1.717-1.717h16.566C35.23 7.6 36 8.37 36 9.317v37.366z"/><path d="M30.4 2h-8.8a.8.8 0 0 0-.8.8v4a.8.8 0 0 0 .8.8h8.8a.8.8 0 0 0 .8-.8v-4a.8.8 0 0 0-.8-.8zm-.8 4h-7.2V3.6h7.2V6zm2.275 17.97a.799.799 0 0 0-.675-.37h-4.8v-7.2a.8.8 0 0 0-1.525-.338l-5.6 12A.8.8 0 0 0 20 29.2h4.8v7.2a.8.8 0 0 0 1.525.338l5.6-12a.8.8 0 0 0-.05-.768zM24.8 27.6h-3.544l3.544-7.594V27.6zm1.6 5.194V25.2h3.544L26.4 32.794z"/></symbol><symbol viewBox="0 0 14 24" id="bluetooth"><path d="M13.205 17.521 8.164 12l5.041-5.52a.86.86 0 0 0-.089-1.244L6.987.196a.858.858 0 0 0-1.405.663v8.315L2.064 5.32A.86.86 0 0 0 .795 6.48l4.787 5.242v.556L.795 17.521a.859.859 0 1 0 1.269 1.159l3.518-3.853v8.314a.86.86 0 0 0 1.405.664l6.13-5.04a.86.86 0 0 0 .088-1.244zM7.301 2.678l4.025 3.31-4.025 4.409V2.678zm0 18.644v-7.718l4.025 4.408-4.025 3.31z"/></symbol><symbol viewBox="0 0 24 24" id="charger"><path d="M22.08 7.227v-2.1a.706.706 0 0 0-.706-.707h-3.278a.706.706 0 0 0-.706.706v2.101a.706.706 0 0 0-.642.703v3.796a1.57 1.57 0 0 0 1.568 1.568h.713v7.52c0 .978-.796 1.774-1.774 1.774H9.538a1.776 1.776 0 0 1-1.774-1.774v-1.52h1.501c.39 0 .706-.316.706-.706v-2.29h.75a2.12 2.12 0 0 0 2.118-2.118V7.778c0-.952-.632-1.76-1.498-2.025v-2.42a.706.706 0 0 0-.706-.706h-.988V.706a.706.706 0 0 0-1.412 0v1.92H5.881V.707a.706.706 0 0 0-1.411 0v1.92h-.988a.706.706 0 0 0-.706.707v2.42a2.121 2.121 0 0 0-1.498 2.025v6.402a2.12 2.12 0 0 0 2.118 2.118h.75v2.29c0 .39.315.706.705.706h1.501v1.52A3.19 3.19 0 0 0 9.538 24h7.717a3.19 3.19 0 0 0 3.186-3.186v-7.52h.713a1.57 1.57 0 0 0 1.568-1.568V7.93a.706.706 0 0 0-.642-.703zM9.929 4.04v1.62H4.188V4.039h5.74zm-7.24 10.14V7.778c0-.389.317-.706.707-.706h7.325c.39 0 .706.317.706.706v6.402c0 .39-.317.706-.706.706H3.396a.707.707 0 0 1-.706-.706zm2.868 2.118H8.56v1.584H5.557v-1.584zM20.668 5.832v1.392h-1.866V5.832h1.866zm.642 5.894c0 .086-.07.156-.156.156h-2.838a.157.157 0 0 1-.156-.156v-3.09h3.15v3.09z"/><path d="M6.164 11.685h.716l-.312.724a.706.706 0 0 0 1.296.559l.737-1.71a.706.706 0 0 0-.648-.984h-.716l.312-.724a.706.706 0 0 0-1.296-.56l-.737 1.71a.706.706 0 0 0 .648.985z"/></symbol><symbol viewBox="0 0 68 68" id="charging"><path d="M35.634 41.989a3.558 3.558 0 0 0 2.606-1.459l9.363-12.944a1 1 0 0 0-1.397-1.397L33.26 35.555a3.557 3.557 0 0 0-1.456 2.604 3.56 3.56 0 0 0 1.033 2.797 3.554 3.554 0 0 0 2.797 1.033zm-1.836-3.674a1.56 1.56 0 0 1 .637-1.142l7.897-5.713-5.711 7.895a1.565 1.565 0 0 1-2.371.187 1.564 1.564 0 0 1-.452-1.227z"/><path d="M58.034 23.564c-.01-.021-.01-.043-.021-.064-.012-.02-.031-.031-.044-.05a27.185 27.185 0 0 0-3.565-4.809l2.148-2.147 1.414 1.414 4.242-4.243-4.242-4.242-4.243 4.242 1.415 1.415-2.148 2.147a27.154 27.154 0 0 0-4.809-3.566c-.019-.013-.03-.032-.05-.044-.021-.012-.043-.011-.064-.022a26.81 26.81 0 0 0-10.273-3.404V9h1.5c1.379 0 2.5-1.121 2.5-2.5S40.672 4 39.293 4h-9a2.502 2.502 0 0 0-2.5 2.5c0 1.379 1.121 2.5 2.5 2.5h1.5v1.156c-1.08.115-2.158.291-3.224.535a1 1 0 1 0 .447 1.949 25.43 25.43 0 0 1 2.78-.477l1.073-.083c.328-.025.63-.043.924-.057V14a1 1 0 1 0 2 0v-1.97a24.805 24.805 0 0 1 10.456 2.845l-.986 1.707a1 1 0 0 0 1.732 1l.983-1.703a25.194 25.194 0 0 1 7.772 7.772l-1.703.983a1 1 0 0 0 1.002 1.732l1.707-.986a24.82 24.82 0 0 1 2.849 10.619H57.63a1 1 0 1 0 0 2h1.975a24.82 24.82 0 0 1-2.849 10.619l-1.707-.986a1 1 0 0 0-1 1.732l1.703.983a25.194 25.194 0 0 1-7.772 7.772l-.983-1.703a.998.998 0 0 0-1.366-.366.999.999 0 0 0-.366 1.366l.986 1.707a24.805 24.805 0 0 1-10.456 2.845V60a1 1 0 1 0-2 0v1.976a25.235 25.235 0 0 1-4.776-.617.996.996 0 0 0-1.198.751 1 1 0 0 0 .751 1.198c1.996.46 4.035.692 6.058.692.049 0 .096-.003.145-.004.007 0 .012.004.018.004.008 0 .015-.005.023-.005a26.825 26.825 0 0 0 13.219-3.573c.031-.014.064-.021.094-.039.02-.012.031-.031.05-.044a27.197 27.197 0 0 0 9.773-9.761c.019-.027.043-.048.06-.078.012-.021.011-.043.021-.064A26.808 26.808 0 0 0 61.63 37c0-4.89-1.313-9.476-3.596-13.436zm-.069-11.313 1.414 1.414-1.414 1.415-1.415-1.415 1.415-1.414zm-24.172-2.23V7h-3.5a.501.501 0 0 1-.5-.5c0-.275.225-.5.5-.5h9c.275 0 .5.225.5.5s-.225.5-.5.5h-3.5v3.021c-.348-.014-.68-.021-1-.021l-.088.002L34.63 10c-.164 0-.328.011-.492.014-.116.003-.225.002-.345.007zm-8 7.979h-5a1 1 0 1 0 0 2h5a1 1 0 1 0 0-2zm0 7h-10a1 1 0 1 0 0 2h10a1 1 0 1 0 0-2zm0 7h-15a1 1 0 1 0 0 2h15a1 1 0 1 0 0-2zm0 7h-19a1 1 0 1 0 0 2h19a1 1 0 1 0 0-2zm0 7h-13a1 1 0 1 0 0 2h13a1 1 0 1 0 0-2zm0 7h-7a1 1 0 1 0 0 2h7a1 1 0 1 0 0-2z"/></symbol><symbol viewBox="0 0 24 24" id="f"><path d="M24 22.692c0 .72-.589 1.308-1.308 1.308h-6.147v-9.286h3.139l.458-3.597h-3.597V8.828c0-1.046.261-1.765 1.766-1.765h1.896v-3.27c-.327-.065-1.439-.13-2.812-.13-2.746 0-4.643 1.7-4.643 4.773v2.681H9.613v3.597h3.139V24H1.308C.588 24 0 23.411 0 22.692V1.308C0 .588.589 0 1.308 0h21.384C23.412 0 24 .589 24 1.308v21.384z"/></symbol><symbol viewBox="0 0 24 24" id="guarantee"><path d="M24 1.781H0v17.446h14.764v3.027l2.624-1.282 2.624 1.282v-3.027H24V1.78zm-6.612 14.632a2.393 2.393 0 0 1-2.39-2.39 2.393 2.393 0 0 1 2.39-2.391 2.393 2.393 0 0 1 2.391 2.39 2.393 2.393 0 0 1-2.39 2.391zm0 2.994-1.217.595v-2.384a3.776 3.776 0 0 0 2.435 0v2.384l-1.218-.595zm5.206-1.587h-2.582v-1.057a3.786 3.786 0 0 0 1.173-2.74 3.801 3.801 0 0 0-3.797-3.797 3.801 3.801 0 0 0-3.796 3.796c0 1.077.45 2.05 1.172 2.74v1.058H1.406V3.187h21.188V17.82z"/><path d="M2.814 7.41h18.372v1.407H2.814V7.41zm2.111-2.814h14.15v1.406H4.925V4.596zm-2.111 10.41h6.84v1.406h-6.84v-1.406zm0-2.816h6.84v1.407h-6.84v-1.406z"/></symbol><symbol viewBox="0 0 24 24" id="in"><path d="M21.123 0H2.877C1.307 0 0 1.243 0 2.812v18.376C0 22.758 1.308 24 2.877 24h18.246C22.693 24 24 22.758 24 21.188V2.812C24 1.242 22.692 0 21.123 0zm-3.859 3.728c0-.393.327-.72.72-.72h2.288c.393 0 .72.327.72.72V5.95c0 .392-.327.72-.72.72H18.05a.726.726 0 0 1-.72-.72l-.065-2.223zM12.033 7.39c2.55 0 4.643 2.027 4.643 4.577s-2.093 4.578-4.643 4.578-4.643-2.027-4.643-4.578c0-2.485 2.092-4.577 4.643-4.577zm9.678 13.602c0 .392-.327.72-.72.72H3.009a.726.726 0 0 1-.72-.72V9.744h2.944c-.393.588-.524 1.635-.524 2.289 0 3.989 3.27 7.259 7.325 7.259 4.054 0 7.324-3.27 7.324-7.26 0-.653-.065-1.7-.589-2.288h3.009l-.066 11.248z"/></symbol><symbol viewBox="0 0 786 1023" id="left-btn" xmlns="http://www.w3.org/2000/svg"><path d="M752.145 0c8.685 0 17.572 3.434 24.237 10.099 13.33 13.33 13.33 35.143 0 48.473L320.126 515.03l449.591 449.591c13.33 13.33 13.33 35.144 0 48.474-13.33 13.33-35.142 13.33-48.472 0L247.418 539.268c-13.33-13.33-13.33-35.144 0-48.474L727.91 10.1C734.575 3.435 743.46.002 752.146.002z"/></symbol><symbol viewBox="0 0 41 41" id="logo"><path d="M20 26c3.3 0 6-2.7 6-6s-2.7-6-6-6-6 2.7-6 6 2.7 6 6 6zm0-26c-2 0-4.1.3-6 .9V12c4.4-3.3 10.7-2.4 14 2 3.3 4.4 2.4 10.7-2 14-4.4 3.3-10.7 2.4-14-2-1.3-1.7-2-3.8-2-6V2.7C.4 8.2-2.8 20.4 2.7 30c5.5 9.6 17.7 12.8 27.3 7.3 9.6-5.5 12.8-17.7 7.3-27.3C33.8 3.8 27.2 0 20 0z"/></symbol><symbol viewBox="0 0 52 52" id="noise"><path d="M15.97 1C7.717 1 1 8.276 1 17.26a12.052 12.052 0 0 0 1.658 5.917c.498.85.925 1.741 1.275 2.662.233.677.01 1.427-.555 1.866a4.117 4.117 0 0 0-1.546 3.237 4.159 4.159 0 0 0 1.824 3.453c.411.28.661.74.67 1.238v6.952c0 4.587 3.358 8.318 7.486 8.318s7.486-3.731 7.486-8.318a11.696 11.696 0 0 1 4.075-8.916 21.067 21.067 0 0 0 7.569-16.45C30.942 8.275 24.226 1 15.97 1zm6.322 31.406a13.354 13.354 0 0 0-4.658 10.18c0 3.668-2.612 6.653-5.822 6.653S5.99 46.254 5.99 42.585v-6.952a3.22 3.22 0 0 0-1.36-2.586 2.505 2.505 0 0 1-1.135-2.105 2.461 2.461 0 0 1 .948-1.96 3.327 3.327 0 0 0 1.053-3.715 19.352 19.352 0 0 0-1.395-2.911 10.431 10.431 0 0 1-1.438-5.138c0-8.025 5.97-14.555 13.308-14.555 7.337 0 13.307 6.53 13.307 14.555a19.454 19.454 0 0 1-6.986 15.188z"/><path d="M15.97 5.159c-4.634 0-8.587 3.286-10.121 7.88-.011.028-.018.055-.027.084a13.307 13.307 0 0 0-.665 4.134c0 .998 0 4.05 1.907 5.957a.832.832 0 0 0 1.176-1.176 5.088 5.088 0 0 1-1.26-2.72c.135-.008.267-.019.406-.019 3.817-.001 6.921 3.492 6.921 7.783 0 .399-.019.773-.05 1.142-.414.442-.854.86-1.319 1.248a9.911 9.911 0 0 0-3.62 8.123.832.832 0 0 0 1.662 0 8.256 8.256 0 0 1 3.033-6.85 11.406 11.406 0 0 0 4.453-9.485c0-5.206-3.918-9.448-8.733-9.448a8.044 8.044 0 0 0-1.646.175 9.007 9.007 0 0 1 7.884-5.165c5.044 0 9.148 4.68 9.148 10.433a15.163 15.163 0 0 1-5.357 11.786c-.115.099-.242.206-.38.321-1.655 1.376-5.098 4.242-5.901 11.469a.832.832 0 0 0 .735.914c.03.005.06.008.091.009.424 0 .78-.32.826-.74.73-6.563 3.71-9.042 5.312-10.374.147-.123.282-.236.404-.34a16.786 16.786 0 0 0 5.934-13.045c0-6.67-4.85-12.096-10.812-12.096zm-6.237 8.317c3.898 0 7.07 3.493 7.07 7.784a10.624 10.624 0 0 1-.915 4.575c-.559-4.625-4.153-8.2-8.5-8.2-.193 0-.377.013-.563.027v-.407c0-1.112.16-2.219.473-3.286a6.333 6.333 0 0 1 2.435-.493zm32.852 6.654a9.8 9.8 0 0 1 3.087-6.904.832.832 0 1 0-1.183-1.164 11.424 11.424 0 0 0-3.567 8.067 11.424 11.424 0 0 0 3.567 8.068.832.832 0 1 0 1.183-1.165 9.8 9.8 0 0 1-3.087-6.903z"/><path d="M48.129 15.35a.832.832 0 0 0-1.175.068 6.86 6.86 0 0 0 0 9.423.832.832 0 1 0 1.243-1.106 5.2 5.2 0 0 1 0-7.211.832.832 0 0 0-.068-1.175z"/><path d="M50.689 17.91a.832.832 0 0 0-1.175-.062 2.904 2.904 0 0 0 0 4.563.832.832 0 1 0 1.113-1.236 1.485 1.485 0 0 1-.556-1.046c.032-.41.234-.789.556-1.045a.832.832 0 0 0 .062-1.174zm-12.262 2.22c0-3.66 1.64-7.197 4.74-10.217a.833.833 0 1 0-1.164-1.191c-3.426 3.34-5.24 7.284-5.24 11.407s1.814 8.068 5.24 11.408a.833.833 0 1 0 1.165-1.191c-3.102-3.02-4.741-6.557-4.741-10.217z"/><path d="M34.268 20.13c0-4.57 1.932-8.971 5.587-12.726a.833.833 0 0 0-1.193-1.164c-3.962 4.075-6.057 8.878-6.057 13.89 0 5.01 2.095 9.814 6.057 13.889a.833.833 0 1 0 1.193-1.165C36.2 29.1 34.268 24.7 34.268 20.13z"/></symbol><symbol viewBox="0 0 42 42" id="parameters"><path d="M21 10.111c-6.004 0-10.889 4.884-10.889 10.889 0 6.004 4.885 10.889 10.889 10.889S31.889 27.004 31.889 21c0-6.005-4.885-10.889-10.889-10.889zm0 20.222c-5.147 0-9.333-4.186-9.333-9.333s4.186-9.333 9.333-9.333 9.333 4.186 9.333 9.333c0 5.146-4.186 9.333-9.333 9.333z"/><path d="M39.838 16.333h-1.57c-.4-1.487-.99-2.91-1.758-4.244l1.11-1.11a2.15 2.15 0 0 0 .633-1.528c0-.578-.225-1.121-.633-1.53L34.078 4.38c-.816-.816-2.24-.818-3.059 0L29.91 5.489a17.776 17.776 0 0 0-4.243-1.757v-1.57C25.667.97 24.697 0 23.504 0h-5.008c-1.193 0-2.163.97-2.163 2.162v1.57c-1.486.4-2.909.99-4.244 1.758l-1.11-1.11c-.817-.818-2.241-.816-3.058 0L4.38 7.922a2.15 2.15 0 0 0-.633 1.53c0 .577.224 1.12.633 1.529l1.109 1.109a17.705 17.705 0 0 0-1.757 4.243h-1.57C.97 16.333 0 17.303 0 18.496v5.008c0 1.193.97 2.163 2.162 2.163h1.57c.4 1.486.99 2.909 1.758 4.244l-1.11 1.11a2.15 2.15 0 0 0-.633 1.528c0 .578.225 1.121.633 1.53l3.542 3.541c.816.818 2.241.819 3.059 0l1.109-1.109a17.798 17.798 0 0 0 4.244 1.758v1.57c0 1.192.97 2.162 2.162 2.162h5.008c1.193 0 2.163-.97 2.163-2.162v-1.57c1.486-.4 2.909-.99 4.244-1.758l1.11 1.11c.817.818 2.24.816 3.058 0l3.541-3.542a2.15 2.15 0 0 0 .633-1.53 2.15 2.15 0 0 0-.633-1.529l-1.109-1.109a17.798 17.798 0 0 0 1.758-4.244h1.57c1.192 0 2.162-.97 2.162-2.163v-5.008a2.166 2.166 0 0 0-2.163-2.163zm.606 7.171a.607.607 0 0 1-.606.607h-2.794l-.14.601a16.245 16.245 0 0 1-2.032 4.909l-.327.524 1.975 1.975a.607.607 0 0 1 0 .859l-3.541 3.54a.607.607 0 0 1-.86 0l-1.974-1.974-.524.327a16.208 16.208 0 0 1-4.909 2.032l-.6.14v2.794a.607.607 0 0 1-.608.606h-5.008a.607.607 0 0 1-.607-.606v-2.794l-.601-.14a16.245 16.245 0 0 1-4.909-2.032l-.524-.327L9.88 36.52a.607.607 0 0 1-.859 0l-3.54-3.541a.607.607 0 0 1 0-.86l1.974-1.974-.327-.524a16.208 16.208 0 0 1-2.032-4.909l-.14-.6H2.162a.607.607 0 0 1-.606-.608v-5.008c0-.335.272-.607.606-.607h2.794l.14-.601a16.228 16.228 0 0 1 2.032-4.909l.327-.524L5.48 9.88a.607.607 0 0 1 0-.859l3.541-3.54a.607.607 0 0 1 .86 0l1.974 1.974.524-.327a16.208 16.208 0 0 1 4.909-2.032l.6-.14V2.162c0-.334.273-.606.608-.606h5.008c.335 0 .607.272.607.606v2.794l.601.14a16.245 16.245 0 0 1 4.909 2.032l.524.327L32.12 5.48a.607.607 0 0 1 .859 0l3.54 3.541a.607.607 0 0 1 0 .86l-1.974 1.974.327.524a16.19 16.19 0 0 1 2.032 4.909l.14.6h2.794c.334 0 .606.273.606.608v5.008z"/><path d="M21 13.222c-4.289 0-7.778 3.49-7.778 7.778 0 4.289 3.49 7.778 7.778 7.778 4.289 0 7.778-3.49 7.778-7.778 0-4.289-3.49-7.778-7.778-7.778zm0 14A6.23 6.23 0 0 1 14.778 21 6.23 6.23 0 0 1 21 14.778 6.23 6.23 0 0 1 27.222 21 6.23 6.23 0 0 1 21 27.222z"/></symbol><symbol viewBox="0 0 12 17" id="play-btn"><path d="m11.407 9.837-8.46 6.74c-.808.641-1.998.065-1.998-.967V2.13c0-1.031 1.19-1.608 1.998-.966l8.46 6.74c.614.492.614 1.44 0 1.933z"/></symbol><symbol viewBox="0 0 52 52" id="plug"><path d="M38.8 12.4h-2.4v-8C36.4 3.04 35.36 2 34 2c-1.36 0-2.4 1.04-2.4 2.4v8H20.4v-8C20.4 3.04 19.36 2 18 2c-1.36 0-2.4 1.04-2.4 2.4v8h-2.4c-.48 0-.8.32-.8.8v6.08c0 4 1.52 7.84 4.24 10.8 2.4 2.72 3.76 6.24 3.76 9.84V42c0 2.24 1.76 4 4 4h.8v3.2c0 .48.32.8.8.8.48 0 .8-.32.8-.8V46h.8c2.24 0 4-1.76 4-4v-2c0-3.68 1.28-7.12 3.76-9.84 2.72-2.96 4.24-6.88 4.24-10.88V13.2c0-.48-.32-.8-.8-.8zm-5.6-8c0-.48.32-.8.8-.8.48 0 .8.32.8.8v8h-1.6v-8zm-16 0c0-.4.32-.8.8-.8.48 0 .8.32.8.8v8h-1.6v-8zM38 19.2c0 3.68-1.28 7.12-3.76 9.84A16.154 16.154 0 0 0 30 39.92V42c0 1.36-1.04 2.4-2.4 2.4h-3.2c-1.36 0-2.4-1.04-2.4-2.4v-2c0-4-1.52-7.92-4.24-10.88-2.4-2.72-3.76-6.24-3.76-9.84V14h24v5.2z"/><path d="M29.2 22.8h-4.48l4.24-4.24c.32-.32.32-.8 0-1.12a.773.773 0 0 0-1.12 0l-5.6 5.6c-.24.24-.32.56-.16.88.08.32.4.48.72.48h4.48l-4.24 4.24c-.32.32-.32.8 0 1.12.16.16.32.24.56.24.24 0 .4-.08.56-.24l5.6-5.6c.24-.24.32-.56.16-.88-.08-.32-.4-.48-.72-.48z"/></symbol><symbol viewBox="0 0 24 24" id="road"><path d="M5.25 4.5A5.256 5.256 0 0 0 0 9.75c0 2.694 4.212 7.465 4.692 8.001A.754.754 0 0 0 5.25 18a.754.754 0 0 0 .558-.249c.48-.536 4.692-5.307 4.692-8.001A5.256 5.256 0 0 0 5.25 4.5zm0 11.605C3.612 14.163 1.5 11.181 1.5 9.75A3.755 3.755 0 0 1 5.25 6 3.755 3.755 0 0 1 9 9.75c0 1.43-2.112 4.413-3.75 6.355z"/><path d="M5.25 7.5C4.01 7.5 3 8.51 3 9.75S4.01 12 5.25 12 7.5 10.99 7.5 9.75 6.49 7.5 5.25 7.5zm0 3a.75.75 0 1 1 0-1.5.75.75 0 0 1 0 1.5zm18-10.5h-6a.75.75 0 0 0-.75.75v7.5a.75.75 0 0 0 1.5 0V6h5.25a.75.75 0 0 0 .75-.75V.75a.75.75 0 0 0-.75-.75zm-.75 4.5H18v-3h4.5v3zm-1.5 12h-7.5c-.826 0-1.5-.674-1.5-1.5s.674-1.5 1.5-1.5h1.638c.31.871 1.135 1.5 2.112 1.5 1.24 0 2.25-1.01 2.25-2.25s-1.01-2.25-2.25-2.25c-.977 0-1.802.629-2.112 1.5H13.5c-1.655 0-3 1.345-3 3 0 1.654 1.345 3 3 3H21c.826 0 1.5.674 1.5 1.5S21.826 21 21 21H7.362a2.246 2.246 0 0 0-2.112-1.5C4.01 19.5 3 20.51 3 21.75S4.01 24 5.25 24c.976 0 1.801-.628 2.112-1.5H21c1.654 0 3-1.346 3-3s-1.346-3-3-3zM17.25 12a.75.75 0 1 1 0 1.5.75.75 0 0 1 0-1.5zm-12 10.5a.75.75 0 1 1 0-1.5.75.75 0 0 1 0 1.5z"/></symbol><symbol viewBox="0 0 68 68" id="sound"><path d="M36.404 11.413a3.029 3.029 0 0 0-3.09.044.929.929 0 0 0-.13.093l-13.55 11.463H9a1 1 0 0 0-1 1v19a1.002 1.002 0 0 0 1 1l10.61-.005 13.543 12.44c.05.046.104.086.161.12a3.055 3.055 0 0 0 1.582.446 3.07 3.07 0 0 0 1.508-.402A3.122 3.122 0 0 0 38 53.857V14.169a3.125 3.125 0 0 0-1.596-2.756zM36 53.857c0 .431-.217.81-.579 1.015a1.049 1.049 0 0 1-1 .026L21 42.569v-4.556a1 1 0 1 0-2 0v3.996l-9 .004v-17h9v4a1 1 0 1 0 2 0v-4.536l13.405-11.34c.461-.242.86-.07 1.016.018.362.205.579.584.579 1.014v39.688zm10.797-38.791a1.002 1.002 0 0 0-.643 1.895 17.48 17.48 0 0 1 11.872 16.553 17.492 17.492 0 0 1-11.849 16.554 1 1 0 0 0 .646 1.893 19.489 19.489 0 0 0 13.202-18.446 19.478 19.478 0 0 0-13.228-18.449z"/><path d="M51.026 33.513c0-5.972-4.009-11.302-9.749-12.962a1 1 0 0 0-.554 1.922c4.889 1.413 8.304 5.953 8.304 11.04 0 5.087-3.415 9.627-8.304 11.04a1 1 0 0 0 .554 1.922c5.741-1.66 9.749-6.99 9.749-12.962z"/></symbol><symbol viewBox="0 0 24 24" id="telephone"><path d="M23.948 18.596c-.068-.205-.5-.506-1.295-.904a39.775 39.775 0 0 0-.92-.511 85.168 85.168 0 0 1-1.083-.597 36.067 36.067 0 0 1-.912-.528 22.128 22.128 0 0 0-.426-.298 4.786 4.786 0 0 0-.605-.367 1.117 1.117 0 0 0-.486-.12c-.227 0-.51.163-.852.487-.34.324-.653.676-.937 1.057-.284.38-.585.732-.903 1.056-.318.324-.58.486-.784.486a1.16 1.16 0 0 1-.384-.085 3.991 3.991 0 0 1-.35-.144 6.374 6.374 0 0 1-.408-.24 15.886 15.886 0 0 0-.324-.196c-1.557-.863-2.892-1.852-4.006-2.965-1.113-1.114-2.102-2.45-2.966-4.006a9.956 9.956 0 0 0-.196-.324 6.125 6.125 0 0 1-.239-.41 3.692 3.692 0 0 1-.144-.349 1.153 1.153 0 0 1-.086-.383c0-.205.162-.466.486-.784.324-.318.677-.62 1.057-.903.38-.284.733-.597 1.057-.938.324-.34.486-.625.486-.852 0-.159-.04-.32-.12-.486a4.738 4.738 0 0 0-.366-.605c-.165-.238-.264-.38-.299-.426-.17-.284-.346-.588-.528-.912-.182-.324-.38-.685-.597-1.082a40.51 40.51 0 0 0-.51-.92C5.91.55 5.607.119 5.403.05A.955.955 0 0 0 5.046 0c-.307 0-.707.057-1.202.17-.494.114-.883.233-1.167.358-.569.239-1.17.932-1.807 2.08C.29 3.676 0 4.733 0 5.778c0 .307.02.605.06.895.04.29.111.616.213.98.103.364.185.634.247.81.063.176.18.49.35.946.17.454.272.732.307.835a15.44 15.44 0 0 0 1.414 2.983c.897 1.454 2.122 2.957 3.673 4.508 1.551 1.551 3.054 2.776 4.509 3.674.875.545 1.87 1.016 2.983 1.414.102.034.38.136.835.307.454.17.77.287.946.35.176.062.446.145.809.247.364.102.69.174.98.214.29.039.588.06.895.06 1.045 0 2.102-.29 3.17-.87 1.148-.637 1.841-1.239 2.08-1.807.125-.284.244-.673.358-1.168.114-.494.17-.894.17-1.201a.951.951 0 0 0-.05-.36z"/></symbol><symbol viewBox="0 0 24 21" id="tw"><path d="M23.346.42c-.98.588-2.027.98-3.139 1.242A4.838 4.838 0 0 0 16.61.092c-2.746 0-4.904 2.29-4.904 5.036 0 .392.065.785.13 1.177C7.716 6.044 4.12 4.016 1.7.943a5.466 5.466 0 0 0-.654 2.55c0 1.766.85 3.27 2.224 4.185-.785 0-1.57-.261-2.224-.653v.13c0 2.42 1.7 4.513 3.924 4.97-.392.131-.85.197-1.308.197-.327 0-.654 0-.915-.066.654 2.027 2.42 3.466 4.577 3.531-1.7 1.374-3.793 2.158-6.147 2.158-.392 0-.785 0-1.177-.065a13.597 13.597 0 0 0 7.52 2.289c9.09 0 13.995-7.717 13.995-14.387v-.654c.98-.72 1.831-1.57 2.485-2.616-.85.393-1.831.654-2.812.785.98-.72 1.766-1.7 2.158-2.877z"/></symbol><symbol viewBox="0 0 20 12" id="vk"><path d="M19.891 10.605c0-.055-.054-.11-.054-.11-.328-.599-1.036-1.416-2.017-2.288-.436-.436-.708-.708-.817-.872-.218-.272-.273-.545-.164-.817.11-.218.382-.654.927-1.363.272-.381.49-.654.654-.872 1.198-1.58 1.743-2.615 1.58-3.051l-.055-.11C19.892.96 19.782.906 19.62.85c-.164-.054-.382-.054-.654 0H15.75c-.109 0-.109.055-.109.055h-.054l-.055.054c-.054 0-.054.055-.109.11-.054.054-.054.108-.109.163a23.35 23.35 0 0 1-1.09 2.343c-.272.436-.49.817-.708 1.144-.218.327-.382.545-.545.709l-.381.381c-.11.11-.218.11-.273.11-.054 0-.109-.055-.163-.055-.11-.055-.164-.164-.218-.273-.055-.109-.11-.218-.11-.381 0-.164-.054-.327-.054-.436V1.667c0-.217 0-.38-.054-.49 0-.109-.055-.218-.11-.327-.054-.109-.108-.218-.217-.272l-.327-.164C10.68.305 10.245.305 9.646.305 8.338.305 7.52.36 7.139.578c-.164.054-.273.163-.382.327-.108.163-.163.218-.054.272.436.055.708.218.872.436l.054.11c.055.108.11.272.164.49.054.218.054.49.109.762.054.49.054.927 0 1.308-.055.382-.055.654-.11.818-.054.218-.054.381-.163.49l-.109.218c0 .055-.054.055-.054.055-.109.054-.164.054-.273.054-.109 0-.218-.054-.327-.163a2.755 2.755 0 0 1-.435-.382 2.641 2.641 0 0 1-.49-.708c-.164-.327-.382-.654-.6-1.09l-.164-.327c-.109-.218-.272-.49-.436-.872-.163-.381-.327-.708-.49-1.09-.055-.109-.164-.218-.273-.327h-.054C3.869.905 3.814.905 3.76.85c-.054 0-.163-.054-.218-.054H.708c-.327 0-.545.109-.654.218v.054C0 1.123 0 1.178 0 1.232c0 .054 0 .163.054.272.436.981.872 1.907 1.363 2.834.49.926.926 1.635 1.253 2.18.382.545.709 1.09 1.09 1.58.382.49.6.818.763.927.11.163.218.217.273.326l.272.273c.164.163.436.381.709.6.327.217.654.435 1.09.708.381.218.871.436 1.362.545.545.163 1.035.218 1.526.163h1.199a.832.832 0 0 0 .545-.218l.054-.054c.055-.055.055-.11.055-.218 0-.11.054-.164.054-.273 0-.272 0-.545.055-.817.054-.218.109-.436.163-.545.055-.109.164-.218.218-.327.11-.109.164-.109.164-.163.054 0 .054-.055.109-.055.163-.054.381 0 .599.164.218.163.436.381.654.599.218.218.436.49.708.817.273.273.545.545.709.654l.218.11c.163.108.327.163.545.217.218.055.436.11.6.055l2.67-.055c.272 0 .49-.054.599-.109.164-.109.218-.163.273-.272.054-.11.054-.218 0-.382 0 0 0-.109-.055-.163z"/></symbol><symbol viewBox="0 0 14 17" id="volume"><path d="M11.188 1.174 5.016 6.082a3.132 3.132 0 0 0-1.497-.372A3.158 3.158 0 0 0 .36 8.87a3.158 3.158 0 0 0 3.16 3.161c.54 0 1.05-.139 1.497-.371l6.172 4.917c.809.642 1.999.065 1.999-.967V2.131c0-1.032-1.19-1.608-1.999-.957z"/></symbol><symbol viewBox="0 0 24 24" id="weight"><path d="M20.337 6.4h-5.363a3.885 3.885 0 0 0 .906-2.497A3.907 3.907 0 0 0 11.977 0a3.907 3.907 0 0 0-3.903 3.903c0 .949.34 1.82.906 2.497H3.617L.28 24h23.392L20.337 6.4zm-8.36-4.994a2.5 2.5 0 0 1 2.497 2.497A2.5 2.5 0 0 1 11.977 6.4 2.5 2.5 0 0 1 9.48 3.903a2.5 2.5 0 0 1 2.497-2.497zm-7.196 6.4h14.392l2.802 14.788H1.979L4.781 7.806z"/><path d="M12.005 12.403H10.41L8.178 14.63v-2.228H7.03v5.62h1.147v-1.921l.578-.564 1.748 2.485h1.481l-2.41-3.273 2.43-2.347z"/><path d="M14.275 16h1.515v.617a2.339 2.339 0 0 1-.494.26 2.065 2.065 0 0 1-.778.153c-.303 0-.592-.067-.86-.2a1.28 1.28 0 0 1-.588-.587c-.14-.275-.212-.628-.212-1.048 0-.34.06-.66.18-.948.066-.16.162-.309.283-.444.115-.128.273-.234.467-.315.198-.083.44-.125.72-.125.227 0 .435.04.619.117a.96.96 0 0 1 .398.288c.097.127.181.31.25.543l.064.22 1.056-.29-.056-.222c-.097-.377-.243-.69-.434-.93a1.913 1.913 0 0 0-.804-.576 2.937 2.937 0 0 0-1.097-.198c-.55 0-1.045.116-1.47.344a2.33 2.33 0 0 0-1.006 1.072 3.434 3.434 0 0 0-.338 1.506c0 .542.115 1.04.342 1.481.233.452.581.802 1.036 1.04.446.234.947.353 1.488.353.402 0 .799-.073 1.18-.218a4.099 4.099 0 0 0 1.1-.638l.087-.07v-2.258l-2.648.004v1.07z"/></symbol></svg>