<svg xmlns="http://www.w3.org/2000/svg">

  <symbol id="logo" viewBox="0 0 41 41">
    <path d="M20 26C23.3 26 26 23.3 26 20C26 16.7 23.3 14 20 14C16.7 14 14 16.7 14 20C14 23.3 16.7 26 20 26ZM20 0C18 0 15.9 0.3 14 0.9V12C18.4 8.7 24.7 9.6 28 14C31.3 18.4 30.4 24.7 26 28C21.6 31.3 15.3 30.4 12 26C10.7 24.3 9.99999 22.2 9.99999 20V2.7C0.399989 8.2 -2.80001 20.4 2.69999 30C8.19999 39.6 20.4 42.8 30 37.3C39.6 31.8 42.8 19.6 37.3 10C33.8 3.8 27.2 0 20 0Z"/>
  </symbol>

  <symbol id="telephone" viewBox="0 0 24 24">
    <path d="M23.9481 18.5956C23.8802 18.3911 23.4483 18.0898 22.6528 17.6924C22.4372 17.5671 22.1301 17.3969 21.7328 17.181C21.335 16.965 20.974 16.7661 20.6504 16.5842C20.3261 16.4024 20.0222 16.2263 19.7384 16.0561C19.693 16.022 19.551 15.9227 19.3123 15.7576C19.0735 15.5929 18.872 15.4707 18.707 15.391C18.5422 15.3118 18.3802 15.2719 18.2211 15.2719C17.9939 15.2719 17.7101 15.4339 17.3693 15.7576C17.0285 16.0816 16.7159 16.4336 16.432 16.8147C16.148 17.1955 15.8468 17.5475 15.5289 17.8714C15.2106 18.1954 14.949 18.3572 14.7447 18.3572C14.6422 18.3572 14.5143 18.3286 14.361 18.2722C14.2078 18.2154 14.0913 18.1668 14.0113 18.1276C13.932 18.0875 13.7959 18.0082 13.6026 17.8885C13.409 17.7692 13.3013 17.7038 13.2786 17.6924C11.7218 16.8286 10.3867 15.8399 9.273 14.7266C8.15962 13.6127 7.17084 12.2777 6.30725 10.7208C6.29591 10.6981 6.23042 10.5901 6.11119 10.397C5.99179 10.2038 5.91221 10.0676 5.87245 9.98781C5.83268 9.90835 5.78439 9.79181 5.72767 9.63844C5.67095 9.48506 5.64248 9.3573 5.64248 9.25491C5.64248 9.05049 5.80445 8.789 6.12833 8.47079C6.45215 8.15276 6.80451 7.8515 7.18505 7.56762C7.56589 7.28374 7.91789 6.97114 8.24183 6.63036C8.56565 6.2894 8.72756 6.00546 8.72756 5.77824C8.72756 5.61925 8.6878 5.45716 8.60834 5.29244C8.52882 5.12737 8.40667 4.92594 8.24183 4.68719C8.07693 4.44856 7.97753 4.30665 7.94338 4.26098C7.77311 3.97709 7.59717 3.67315 7.41514 3.34927C7.23311 3.02545 7.03442 2.66449 6.81842 2.26682C6.6026 1.86932 6.43227 1.5624 6.30713 1.34651C5.90964 0.551227 5.60856 0.119224 5.40397 0.0512838C5.32438 0.0171941 5.20498 0 5.04605 0C4.73907 0 4.33859 0.0567167 3.84432 0.170508C3.34987 0.284121 2.96079 0.403286 2.67667 0.52848C2.10849 0.766989 1.50628 1.46013 0.869857 2.60766C0.290332 3.6756 0.000598907 4.73262 0.000598907 5.77794C0.000598907 6.08451 0.0204796 6.38278 0.060241 6.67281C0.100002 6.96254 0.171047 7.28929 0.273436 7.65299C0.375645 8.01658 0.458093 8.28667 0.520422 8.46255C0.58281 8.63855 0.699289 8.95384 0.869797 9.40852C1.04007 9.86309 1.14245 10.1414 1.17654 10.2436C1.57422 11.3573 2.0458 12.3515 2.59118 13.2266C3.4885 14.681 4.71304 16.1841 6.26409 17.7353C7.8152 19.2864 9.31802 20.5108 10.7726 21.4085C11.6475 21.9538 12.6421 22.4254 13.7556 22.8233C13.8579 22.8573 14.1362 22.9594 14.5906 23.1303C15.0451 23.3007 15.3605 23.4171 15.5365 23.4796C15.7126 23.5422 15.9828 23.6247 16.346 23.7271C16.7101 23.8295 17.0366 23.9005 17.3263 23.9406C17.6162 23.9798 17.9145 24.0001 18.2212 24.0001C19.2664 24.0001 20.3235 23.7101 21.3916 23.1307C22.539 22.4945 23.232 21.8922 23.4706 21.3236C23.5961 21.0397 23.715 20.6506 23.8286 20.1561C23.9426 19.6619 23.9992 19.2615 23.9992 18.9545C23.9995 18.795 23.9824 18.6759 23.9481 18.5956Z"/>
  </symbol>

  <symbol id="noise" viewBox="0 0 52 52">
    <path d="M15.9708 1C7.71605 1 1 8.27579 1 17.2591C1.03177 19.342 1.60287 21.3811 2.6576 23.1775C3.15599 24.0277 3.58274 24.918 3.93344 25.839C4.16602 26.5159 3.94278 27.2658 3.37786 27.7053C2.39499 28.4911 1.82544 29.6832 1.83171 30.9415C1.82776 32.3243 2.51136 33.6185 3.65565 34.3948C4.06703 34.6743 4.31726 35.1359 4.32684 35.6332V42.5854C4.32684 47.1715 7.68444 50.9025 11.8122 50.9025C15.94 50.9025 19.2976 47.1715 19.2976 42.5854C19.285 39.1601 20.7745 35.9014 23.373 33.6695C28.2442 29.6051 31.0244 23.5619 30.9415 17.2183C30.9415 8.27579 24.2255 1 15.9708 1ZM22.2917 32.4062C19.3233 34.9534 17.621 38.674 17.6342 42.5854C17.6342 46.2541 15.0218 49.2391 11.8122 49.2391C8.60265 49.2391 5.99025 46.2541 5.99025 42.5854V35.6332C5.97678 34.6031 5.47131 33.6417 4.63041 33.0466C3.91983 32.5825 3.49254 31.7902 3.49513 30.9415C3.48942 30.1765 3.83983 29.4523 4.44327 28.982C5.55062 28.0949 5.97343 26.603 5.49622 25.2668C5.11317 24.2593 4.64662 23.2856 4.10144 22.3558C3.18489 20.7969 2.68934 19.0265 2.66342 17.2183C2.66342 9.19316 8.63342 2.66342 15.9708 2.66342C23.3081 2.66342 29.2781 9.19316 29.2781 17.2183C29.3542 23.0745 26.788 28.6533 22.2917 32.4062Z"/>
    <path d="M15.9707 5.15854C11.3356 5.15854 7.38335 8.44545 5.84885 13.0398C5.83803 13.0673 5.83055 13.0939 5.82223 13.123C5.38372 14.4571 5.15915 15.8522 5.15686 17.2566C5.15686 18.2546 5.15686 21.307 7.06397 23.2141C7.39032 23.5293 7.90906 23.5248 8.22988 23.204C8.5507 22.8832 8.5552 22.3644 8.24001 22.0381C7.55671 21.2785 7.11793 20.3308 6.9808 19.3184C7.11471 19.3101 7.24695 19.2993 7.38584 19.2993C11.2034 19.2976 14.3073 22.7908 14.3073 27.0824C14.3073 27.4808 14.2882 27.855 14.2574 28.2243C13.8433 28.6664 13.4028 29.0831 12.9383 29.4719C10.5159 31.4557 9.17332 34.4674 9.31707 37.5952C9.31707 38.0545 9.68944 38.4269 10.1488 38.4269C10.6081 38.4269 10.9805 38.0545 10.9805 37.5952C10.8374 34.958 11.9646 32.4116 14.0129 30.7444C16.9473 28.4922 18.6072 24.9568 18.4659 21.2604C18.4659 16.0539 14.5485 11.8122 9.73293 11.8122C9.17973 11.8137 8.62816 11.8722 8.08697 11.9869C9.53264 8.91802 12.5799 6.92167 15.9707 6.82196C21.0151 6.82196 25.1195 11.502 25.1195 17.2549C25.1849 21.787 23.2194 26.1106 19.7617 29.0411C19.6469 29.14 19.5196 29.2465 19.3816 29.3621C17.7265 30.7377 14.284 33.6038 13.4806 40.8305C13.432 41.2859 13.7607 41.6949 14.2158 41.7454C14.2462 41.7498 14.2767 41.7526 14.3073 41.7537C14.731 41.7533 15.0866 41.4346 15.1332 41.0135C15.8626 34.4513 18.8426 31.972 20.4445 30.6404C20.5917 30.5173 20.7273 30.4042 20.8487 30.2994C24.6768 27.0566 26.8537 22.2714 26.783 17.2549C26.783 10.5846 21.9324 5.15854 15.9707 5.15854ZM9.73293 13.4756C13.6311 13.4756 16.8025 16.9688 16.8025 21.2604C16.8402 22.8342 16.5277 24.3966 15.8876 25.8348C15.3295 21.2105 11.7349 17.6342 7.38751 17.6342C7.19538 17.6342 7.01074 17.6483 6.82527 17.6616C6.82527 17.5019 6.82527 17.363 6.82527 17.2549C6.82557 16.1427 6.98465 15.0361 7.29768 13.9688C8.0689 13.6452 8.89657 13.4776 9.73293 13.4756Z"/>
    <path d="M42.5854 20.1293C42.6492 17.508 43.7609 15.0216 45.6719 13.2261C45.904 13.02 46.002 12.7017 45.926 12.4007C45.8501 12.0997 45.6128 11.8661 45.3106 11.7948C45.0084 11.7235 44.6917 11.8264 44.4892 12.0617C42.268 14.1648 40.983 17.071 40.922 20.1293C40.983 23.1876 42.268 26.0937 44.4892 28.1969C44.6917 28.4322 45.0084 28.5351 45.3106 28.4638C45.6128 28.3925 45.8501 28.1589 45.926 27.8579C46.002 27.5569 45.904 27.2386 45.6719 27.0325C43.7609 25.237 42.6492 22.7506 42.5854 20.1293Z"/>
    <path d="M48.1288 15.3495C47.964 15.2028 47.7477 15.1275 47.5275 15.1403C47.3072 15.1531 47.1011 15.2529 46.9544 15.4177C44.4561 18.062 44.4561 22.1966 46.9544 24.8409C47.152 25.0629 47.453 25.1626 47.744 25.1024C48.0351 25.0423 48.2719 24.8315 48.3653 24.5494C48.4587 24.2673 48.3946 23.9567 48.197 23.7348C46.2597 21.7215 46.2597 18.5371 48.197 16.5239C48.3437 16.3591 48.4189 16.1428 48.4061 15.9225C48.3933 15.7023 48.2936 15.4962 48.1288 15.3495Z"/>
    <path d="M50.6887 17.9095C50.3814 17.5683 49.8557 17.5407 49.5144 17.8479C48.8154 18.3986 48.4074 19.2394 48.4074 20.1293C48.4074 21.0192 48.8154 21.86 49.5144 22.4107C49.7341 22.6165 50.0479 22.6875 50.3348 22.5964C50.6217 22.5052 50.837 22.2662 50.8976 21.9713C50.9583 21.6764 50.8548 21.3717 50.6272 21.1748C50.3047 20.9185 50.1032 20.5399 50.0708 20.1293C50.1032 19.7187 50.3047 19.3401 50.6272 19.0838C50.9684 18.7765 50.9959 18.2508 50.6887 17.9095Z"/>
    <path d="M38.4269 20.1293C38.4269 16.4698 40.0662 12.9334 43.1676 9.91259C43.3804 9.70459 43.466 9.39889 43.3923 9.11064C43.3185 8.82239 43.0966 8.59539 42.8101 8.51514C42.5236 8.43489 42.216 8.51358 42.0032 8.72158C38.5766 12.0617 36.7635 16.0065 36.7635 20.1293C36.7635 24.2521 38.5766 28.1969 42.0032 31.537C42.3321 31.8586 42.8594 31.8526 43.1809 31.5237C43.5025 31.1948 43.4965 30.6676 43.1676 30.346C40.0662 27.3253 38.4269 23.7888 38.4269 20.1293Z"/>
    <path d="M34.2684 20.1293C34.2684 15.5599 36.1996 11.1585 39.855 7.40416C40.063 7.19111 40.1415 6.88328 40.061 6.59662C39.9805 6.30997 39.7532 6.08804 39.4647 6.01443C39.1762 5.94082 38.8703 6.02672 38.6623 6.23977C34.7 10.3151 32.6049 15.1183 32.6049 20.1293C32.6049 25.1403 34.7 29.9435 38.6623 34.0188C38.9839 34.3482 39.5115 34.3545 39.8408 34.033C40.1702 33.7114 40.1765 33.1838 39.855 32.8544C36.1996 29.1001 34.2684 24.6987 34.2684 20.1293Z"/>
  </symbol>

  <symbol id="battery" viewBox="0 0 52 52">
    <path d="M34.2832 5.99995H17.7168C15.8879 5.99995 14.4001 7.48777 14.4001 9.31671V46.6831C14.4001 48.5121 15.8879 49.9999 17.7168 49.9999H34.2833C36.1122 49.9999 37.6 48.5121 37.6 46.6831V9.31683C37.6 7.48777 36.1122 5.99995 34.2832 5.99995ZM36 46.6832C36 47.6296 35.2296 48.4 34.2832 48.4H17.7168C16.7704 48.4 16 47.6296 16 46.6832V9.31683C16 8.37042 16.7704 7.60003 17.7168 7.60003H34.2833C35.2297 7.60003 36.0001 8.37042 36.0001 9.31683V46.6832H36Z"/>
    <path d="M30.4 2H21.6001C21.1583 2 20.8 2.35824 20.8 2.80004V6.8C20.8 7.2418 21.1583 7.60004 21.6001 7.60004H30.4C30.8418 7.60004 31.2001 7.2418 31.2001 6.8V2.80004C31.2 2.35824 30.8418 2 30.4 2ZM29.6 5.99996H22.4V3.59996H29.6V5.99996Z"/>
    <path d="M31.8746 23.9702C31.7278 23.7392 31.4734 23.5998 31.2 23.5998H26.4V16.3998C26.4 16.0248 26.1393 15.7002 25.7734 15.619C25.404 15.5381 25.0336 15.7217 24.875 16.0616L19.275 28.0616C19.1594 28.3092 19.1785 28.5992 19.3254 28.8296C19.4722 29.0606 19.7266 29.2 20 29.2H24.8V36.4C24.8 36.775 25.0606 37.0996 25.4266 37.1808C25.4848 37.1939 25.543 37.2001 25.6004 37.2001C25.9058 37.2001 26.1914 37.0243 26.325 36.7382L31.925 24.7382C32.0406 24.4906 32.0215 24.2006 31.8746 23.9702ZM24.8 27.6H21.2563L24.8 20.0057V27.6ZM26.4 32.7942V25.2H29.9437L26.4 32.7942Z"/>

  </symbol>

  <symbol id="plug" viewBox="0 0 52 52">
    <path d="M38.8 12.4H36.4V4.4C36.4 3.03997 35.36 2 34 2C32.6399 2 31.6 3.03997 31.6 4.4V12.4H20.4V4.4C20.4 3.03997 19.3601 2 18 2C16.64 2 15.6 3.03997 15.6 4.4V12.4H13.2C12.72 12.4 12.4001 12.7199 12.4001 13.1999V19.2799C12.4001 23.2799 13.92 27.1199 16.6401 30.0799C19.0401 32.7999 20.4001 36.3199 20.4001 39.9199V41.9999C20.4001 44.2399 22.1601 46 24.4002 46H25.2001V49.1999C25.2001 49.6799 25.5201 49.9999 26.0001 49.9999C26.4801 49.9999 26.8001 49.6799 26.8001 49.1999V46H27.6C29.84 46 31.6001 44.24 31.6001 41.9999V40C31.6001 36.32 32.88 32.8799 35.3601 30.16C38.0801 27.2 39.6001 23.2799 39.6001 19.28V13.2C39.6 12.72 39.28 12.4 38.8 12.4ZM33.2 4.4C33.2 3.92 33.52 3.60003 34 3.60003C34.48 3.60003 34.7999 3.92 34.7999 4.4V12.4H33.2V4.4ZM17.2 4.4C17.2 3.99997 17.5199 3.60003 17.9999 3.60003C18.4799 3.60003 18.7999 3.92 18.7999 4.4V12.4H17.1999V4.4H17.2ZM38 19.2C38 22.88 36.72 26.3201 34.24 29.04C31.52 32 30 35.92 30 39.92V42C30 43.3601 28.9601 44.4 27.6 44.4H24.4001C23.04 44.4 22.0001 43.3601 22.0001 42V40.0001C22.0001 36 20.4801 32.0801 17.76 29.1201C15.36 26.4 14 22.88 14 19.28V14H16.4H19.6H32.3999H35.6H38V19.2Z"/>
    <path d="M29.2 22.8H24.7199L28.96 18.56C29.2799 18.24 29.2799 17.76 28.96 17.44C28.64 17.1199 28.16 17.12 27.8399 17.44L22.24 23.0399C22 23.2799 21.92 23.5999 22.0799 23.92C22.1599 24.2399 22.48 24.4 22.7999 24.4H27.28L23.0399 28.64C22.72 28.96 22.72 29.44 23.0399 29.76C23.2 29.9201 23.3599 30 23.5999 30C23.8399 30 23.9999 29.9201 24.1599 29.76L29.7599 24.1601C29.9999 23.9201 30.0798 23.6001 29.9199 23.28C29.84 22.96 29.52 22.8 29.2 22.8Z"/>
  </symbol>

  <symbol id="battery" viewBox="0 0 68 68">
    <path d="M46.536 8H40V4H28V8H21.464C19.554 8 18 9.554 18 11.464V60.536C18 62.446 19.554 64 21.464 64H46.536C48.446 64 50 62.446 50 60.536V11.464C50 9.554 48.446 8 46.536 8ZM20 23H48V35H20V23ZM20 37H48V49H20V37ZM30 6H38V8H30V6ZM21.464 10H28H40H46.536C47.344 10 48 10.656 48 11.464V21H20V11.464C20 10.656 20.656 10 21.464 10ZM46.536 62H21.464C20.656 62 20 61.344 20 60.536V51H48V60.536C48 61.344 47.344 62 46.536 62Z"/>
  </symbol>

  <symbol id="sound" viewBox="0 0 68 68">
    <path d="M36.404 11.413C35.428 10.861 34.273 10.879 33.314 11.457C33.268 11.484 33.224 11.516 33.184 11.55L19.634 23.013H9C8.447 23.013 8 23.46 8 24.013V43.013C8 43.279 8.105 43.533 8.293 43.72C8.481 43.907 8.734 44.013 9 44.013L19.61 44.008L33.153 56.448C33.203 56.494 33.257 56.534 33.314 56.568C33.806 56.865 34.351 57.014 34.896 57.014C35.413 57.013 35.929 56.88 36.404 56.612C37.403 56.048 38 55.018 38 53.857V14.169C38 13.008 37.403 11.978 36.404 11.413ZM36 53.857C36 54.288 35.783 54.667 35.421 54.872C35.266 54.959 34.873 55.127 34.421 54.898L21 42.569V38.013C21 37.46 20.553 37.013 20 37.013C19.447 37.013 19 37.46 19 38.013V42.009L10 42.013V25.013H19V29.013C19 29.566 19.447 30.013 20 30.013C20.553 30.013 21 29.566 21 29.013V24.477L34.405 13.137C34.866 12.895 35.265 13.067 35.421 13.155C35.783 13.36 36 13.739 36 14.169V53.857Z"/>
    <path d="M46.797 15.066C46.274 14.889 45.706 15.169 45.528 15.692C45.351 16.214 45.631 16.783 46.154 16.961C53.255 19.372 58.026 26.024 58.026 33.514C58.026 40.997 53.264 47.65 46.177 50.068C45.655 50.246 45.375 50.814 45.554 51.338C45.696 51.753 46.084 52.015 46.5 52.015C46.607 52.015 46.716 51.998 46.823 51.961C54.719 49.268 60.025 41.855 60.025 33.515C60.026 25.166 54.71 17.753 46.797 15.066Z"/>
    <path d="M51.026 33.513C51.026 27.541 47.017 22.211 41.277 20.551C40.744 20.4 40.193 20.703 40.039 21.235C39.886 21.765 40.191 22.32 40.723 22.473C45.612 23.886 49.027 28.426 49.027 33.513C49.027 38.6 45.612 43.14 40.723 44.553C40.192 44.706 39.886 45.261 40.039 45.791C40.166 46.229 40.565 46.514 41 46.514C41.092 46.514 41.185 46.501 41.277 46.475C47.018 44.815 51.026 39.485 51.026 33.513Z"/>

  </symbol>
    
  <symbol id="charging" viewBox="0 0 68 68">
    <path d="M35.634 41.989C36.675 41.908 37.624 41.377 38.24 40.53L47.603 27.586C47.89 27.189 47.847 26.641 47.499 26.293C47.151 25.946 46.603 25.903 46.206 26.189L33.26 35.555C32.416 36.169 31.885 37.118 31.804 38.159C31.723 39.2 32.1 40.219 32.837 40.956C33.508 41.628 34.413 42 35.354 42C35.447 42 35.54 41.996 35.634 41.989ZM33.798 38.315C33.833 37.858 34.067 37.441 34.435 37.173L42.332 31.46L36.621 39.355C36.351 39.726 35.934 39.959 35.477 39.995C35.022 40.025 34.575 39.867 34.25 39.542C33.928 39.219 33.762 38.771 33.798 38.315Z" />
    <path d="M58.034 23.564C58.024 23.543 58.024 23.521 58.013 23.5C58.001 23.48 57.982 23.469 57.969 23.45C56.958 21.716 55.762 20.103 54.404 18.641L56.552 16.494L57.966 17.908L62.208 13.665L57.966 9.423L53.723 13.665L55.138 15.08L52.99 17.227C51.528 15.869 49.916 14.672 48.181 13.661C48.162 13.648 48.151 13.629 48.131 13.617C48.11 13.605 48.088 13.606 48.067 13.595C44.974 11.813 41.499 10.626 37.794 10.191V9H39.294C40.673 9 41.794 7.879 41.794 6.5C41.794 5.121 40.672 4 39.293 4H30.293C28.914 4 27.793 5.121 27.793 6.5C27.793 7.879 28.914 9 30.293 9H31.793V10.156C30.713 10.271 29.635 10.447 28.569 10.691C28.031 10.814 27.694 11.351 27.818 11.889C27.941 12.427 28.478 12.765 29.016 12.64C29.936 12.429 30.865 12.27 31.796 12.163L32.869 12.08C33.197 12.055 33.499 12.037 33.793 12.023V14C33.793 14.553 34.24 15 34.793 15C35.346 15 35.793 14.553 35.793 14V12.03C39.554 12.203 43.098 13.213 46.249 14.875L45.263 16.582C44.987 17.061 45.151 17.672 45.629 17.948C45.786 18.039 45.958 18.082 46.128 18.082C46.474 18.082 46.81 17.903 46.995 17.582L47.978 15.879C51.107 17.864 53.765 20.522 55.75 23.651L54.047 24.634C53.57 24.91 53.406 25.521 53.683 26C53.869 26.321 54.204 26.5 54.55 26.5C54.72 26.5 54.892 26.457 55.049 26.366L56.756 25.38C58.441 28.576 59.454 32.178 59.605 35.999H57.63C57.077 35.999 56.63 36.446 56.63 36.999C56.63 37.552 57.077 37.999 57.63 37.999H59.605C59.454 41.82 58.441 45.422 56.756 48.618L55.049 47.632C54.571 47.356 53.959 47.518 53.683 47.998C53.407 48.477 53.571 49.088 54.049 49.364L55.752 50.347C53.767 53.476 51.109 56.134 47.98 58.119L46.997 56.416C46.72 55.936 46.107 55.773 45.631 56.05C45.152 56.326 44.988 56.938 45.265 57.416L46.251 59.123C43.1 60.785 39.556 61.795 35.795 61.968V60C35.795 59.447 35.348 59 34.795 59C34.242 59 33.795 59.447 33.795 60V61.976C32.198 61.921 30.596 61.721 29.019 61.359C28.481 61.23 27.944 61.572 27.821 62.11C27.697 62.648 28.034 63.185 28.572 63.308C30.568 63.768 32.607 64 34.63 64C34.679 64 34.726 63.997 34.775 63.996C34.782 63.996 34.787 64 34.793 64C34.801 64 34.808 63.995 34.816 63.995C39.623 63.962 44.133 62.664 48.035 60.422C48.066 60.408 48.099 60.401 48.129 60.383C48.149 60.371 48.16 60.352 48.179 60.339C52.218 57.985 55.593 54.614 57.952 50.578C57.971 50.551 57.995 50.53 58.012 50.5C58.024 50.479 58.023 50.457 58.033 50.436C60.317 46.476 61.63 41.89 61.63 37C61.63 32.11 60.317 27.524 58.034 23.564ZM57.965 12.251L59.379 13.665L57.965 15.08L56.55 13.665L57.965 12.251ZM33.793 10.021V7H30.293C30.018 7 29.793 6.775 29.793 6.5C29.793 6.225 30.018 6 30.293 6H39.293C39.568 6 39.793 6.225 39.793 6.5C39.793 6.775 39.568 7 39.293 7H35.793V10.021C35.445 10.007 35.113 10 34.793 10C34.765 10 34.733 10.002 34.705 10.002C34.68 10.002 34.655 10 34.63 10C34.466 10 34.302 10.011 34.138 10.014C34.022 10.017 33.913 10.016 33.793 10.021Z"/>
    <path d="M25.793 18H20.793C20.24 18 19.793 18.447 19.793 19C19.793 19.553 20.24 20 20.793 20H25.793C26.346 20 26.793 19.553 26.793 19C26.793 18.447 26.346 18 25.793 18Z"/>
    <path d="M25.793 25H15.793C15.24 25 14.793 25.447 14.793 26C14.793 26.553 15.24 27 15.793 27H25.793C26.346 27 26.793 26.553 26.793 26C26.793 25.447 26.346 25 25.793 25Z"/>
    <path d="M25.793 32H10.793C10.24 32 9.793 32.447 9.793 33C9.793 33.553 10.24 34 10.793 34H25.793C26.346 34 26.793 33.553 26.793 33C26.793 32.447 26.346 32 25.793 32Z"/>
    <path d="M25.793 39H6.793C6.24 39 5.793 39.447 5.793 40C5.793 40.553 6.24 41 6.793 41H25.793C26.346 41 26.793 40.553 26.793 40C26.793 39.447 26.346 39 25.793 39Z"/>
    <path d="M25.793 46H12.793C12.24 46 11.793 46.447 11.793 47C11.793 47.553 12.24 48 12.793 48H25.793C26.346 48 26.793 47.553 26.793 47C26.793 46.447 26.346 46 25.793 46Z"/>
    <path d="M25.793 53H18.793C18.24 53 17.793 53.447 17.793 54C17.793 54.553 18.24 55 18.793 55H25.793C26.346 55 26.793 54.553 26.793 54C26.793 53.447 26.346 53 25.793 53Z"/>
  </symbol>

  <symbol id="f" viewBox="0 0 24 24">
      <path d="M24 22.6921C24 23.4114 23.4114 24 22.6921 24H16.545V14.7139H19.6839L20.1417 11.1172H16.545V8.82834C16.545 7.78202 16.8065 7.06267 18.3106 7.06267H20.2071V3.79292C19.8801 3.72752 18.7684 3.66213 17.3951 3.66213C14.6485 3.66213 12.752 5.3624 12.752 8.43597V11.1172H9.61308V14.7139H12.752V24H1.3079C0.588556 24 0 23.4114 0 22.6921V1.3079C0 0.588556 0.588556 0 1.3079 0H22.6921C23.4114 0 24 0.588556 24 1.3079V22.6921Z" />
  </symbol>
  <symbol id="in" viewBox="0 0 24 24">
    <path d="M21.1226 0H2.87738C1.3079 0 0 1.24251 0 2.81199V21.188C0 22.7575 1.3079 24 2.87738 24H21.1226C22.6921 24 24 22.7575 24 21.188V2.81199C24 1.24251 22.6921 0 21.1226 0ZM17.2643 3.72752C17.2643 3.33515 17.5913 3.00817 17.9837 3.00817H20.2725C20.6649 3.00817 20.9918 3.33515 20.9918 3.72752V5.95095C20.9918 6.34332 20.6649 6.6703 20.2725 6.6703H18.049C17.6567 6.6703 17.3297 6.34332 17.3297 5.95095L17.2643 3.72752ZM12.0327 7.38965C14.5831 7.38965 16.6757 9.41689 16.6757 11.9673C16.6757 14.5177 14.5831 16.545 12.0327 16.545C9.48229 16.545 7.38965 14.5177 7.38965 11.9673C7.38965 9.48229 9.48229 7.38965 12.0327 7.38965ZM21.7112 20.9918C21.7112 21.3842 21.3842 21.7112 20.9918 21.7112H3.00817C2.6158 21.7112 2.28883 21.3842 2.28883 20.9918V9.74387H5.23161C4.83924 10.3324 4.70845 11.3787 4.70845 12.0327C4.70845 16.0218 7.9782 19.2916 12.0327 19.2916C16.0872 19.2916 19.3569 16.0218 19.3569 12.0327C19.3569 11.3787 19.2916 10.3324 18.7684 9.74387H21.7766L21.7112 20.9918Z" />
  </symbol>
  <symbol id="tw" viewBox="0 0 24 21">
    <path d="M23.346 0.419627C22.3651 1.00818 21.3188 1.40055 20.2071 1.66213C19.2916 0.681207 18.049 0.0926514 16.6104 0.0926514C13.8638 0.0926514 11.7057 2.38148 11.7057 5.12807C11.7057 5.52044 11.7711 5.91281 11.8365 6.30519C7.71662 6.0436 4.11989 4.01636 1.70027 0.942788C1.3079 1.66213 1.04632 2.57766 1.04632 3.4932C1.04632 5.25886 1.89646 6.76295 3.26975 7.67848C2.48501 7.67848 1.70027 7.4169 1.04632 7.02453V7.15532C1.04632 9.57494 2.74659 11.6676 4.97003 12.1253C4.57766 12.2561 4.11989 12.3215 3.66213 12.3215C3.33515 12.3215 3.00817 12.3215 2.74659 12.2561C3.40054 14.2834 5.16621 15.7221 7.32425 15.7875C5.62398 17.1608 3.53133 17.9455 1.17711 17.9455C0.784741 17.9455 0.392371 17.9455 0 17.8801C2.15804 19.3188 4.77384 20.1689 7.52044 20.1689C16.6104 20.1689 21.515 12.4523 21.515 5.78202C21.515 5.58584 21.515 5.32426 21.515 5.12807C22.4959 4.40873 23.346 3.55859 24 2.51227C23.1499 2.90464 22.1689 3.16622 21.188 3.29701C22.1689 2.57767 22.9537 1.59674 23.346 0.419627Z" />
  </symbol>
  <symbol id="vk" viewBox="0 0 20 12">
    <path d="M19.891 10.6049C19.891 10.5504 19.8365 10.4959 19.8365 10.4959C19.5095 9.89646 18.8011 9.07902 17.8202 8.20708C17.3842 7.77112 17.1117 7.49864 17.0027 7.33515C16.7847 7.06267 16.7302 6.79019 16.8392 6.51771C16.9482 6.29973 17.2207 5.86376 17.7657 5.15531C18.0381 4.77384 18.2561 4.50136 18.4196 4.28338C19.6185 2.703 20.1635 1.66757 20 1.23161L19.9455 1.12261C19.891 0.959126 19.782 0.90463 19.6185 0.850135C19.455 0.795639 19.2371 0.795639 18.9646 0.850135H15.9673C15.9128 0.850135 15.8583 0.850135 15.7493 0.850135C15.6403 0.850135 15.6403 0.904631 15.6403 0.904631H15.5858L15.5313 0.959127C15.4768 0.959127 15.4768 1.01362 15.4223 1.06812C15.3678 1.12261 15.3678 1.17711 15.3134 1.23161C14.9864 2.04904 14.6049 2.86648 14.2234 3.57493C13.951 4.0109 13.733 4.39237 13.515 4.71934C13.297 5.04632 13.1335 5.2643 12.97 5.42779C12.8065 5.59128 12.6975 5.70027 12.5886 5.80926C12.4796 5.91825 12.3706 5.91825 12.3161 5.91825C12.2616 5.91825 12.2071 5.86376 12.1526 5.86376C12.0436 5.80926 11.9891 5.70027 11.9346 5.59128C11.8801 5.48229 11.8256 5.3733 11.8256 5.20981C11.8256 5.04632 11.7711 4.88283 11.7711 4.77384C11.7711 4.66485 11.7711 4.50136 11.7711 4.28338C11.7711 4.06539 11.7711 3.90191 11.7711 3.84741C11.7711 3.57493 11.7711 3.30245 11.7711 2.97548C11.7711 2.6485 11.7711 2.43052 11.7711 2.26703C11.7711 2.10354 11.7711 1.88556 11.7711 1.66757C11.7711 1.44959 11.7711 1.2861 11.7166 1.17711C11.7166 1.06812 11.6621 0.959126 11.6076 0.850135C11.5531 0.741143 11.4986 0.632151 11.3896 0.577655C11.2807 0.523159 11.1717 0.468664 11.0627 0.414168C10.6812 0.305176 10.2452 0.305176 9.64578 0.305176C8.33788 0.305176 7.52044 0.359671 7.13896 0.577655C6.97548 0.632151 6.86648 0.741143 6.75749 0.904631C6.6485 1.06812 6.59401 1.12261 6.703 1.17711C7.13896 1.23161 7.41144 1.39509 7.57493 1.61308L7.62943 1.72207C7.68392 1.83106 7.73842 1.99455 7.79292 2.21253C7.84741 2.43052 7.84741 2.703 7.90191 2.97548C7.9564 3.46594 7.9564 3.90191 7.90191 4.28338C7.84741 4.66485 7.84741 4.93733 7.79292 5.10082C7.73842 5.3188 7.73842 5.48229 7.62943 5.59128C7.57493 5.70027 7.52044 5.80926 7.52044 5.80926C7.52044 5.86376 7.46594 5.86376 7.46594 5.86376C7.35695 5.91825 7.30245 5.91825 7.19346 5.91825C7.08447 5.91825 6.97548 5.86376 6.86649 5.75477C6.703 5.64577 6.59401 5.53678 6.43052 5.3733C6.26703 5.20981 6.10354 4.99182 5.94005 4.66485C5.77657 4.33787 5.55858 4.0109 5.3406 3.57493L5.17711 3.24795C5.06812 3.02997 4.90463 2.75749 4.74114 2.37602C4.57766 1.99455 4.41417 1.66757 4.25068 1.2861C4.19619 1.17711 4.08719 1.06812 3.9782 0.959127H3.92371C3.86921 0.904631 3.81471 0.90463 3.76022 0.850135C3.70572 0.850135 3.59673 0.795639 3.54223 0.795639H0.708447C0.381471 0.795639 0.163488 0.904631 0.0544959 1.01362V1.06812C0 1.12261 0 1.17711 0 1.23161C0 1.2861 0 1.39509 0.0544959 1.50409C0.490463 2.48501 0.92643 3.41144 1.41689 4.33787C1.90736 5.2643 2.34332 5.97275 2.6703 6.51771C3.05177 7.06267 3.37875 7.60763 3.76022 8.09809C4.14169 8.58855 4.35967 8.91553 4.52316 9.02452C4.63215 9.18801 4.74114 9.2425 4.79564 9.3515L5.06812 9.62398C5.23161 9.78746 5.50409 10.0054 5.77657 10.2234C6.10354 10.4414 6.43052 10.6594 6.86649 10.9319C7.24796 11.1499 7.73842 11.3678 8.22888 11.4768C8.77384 11.6403 9.2643 11.6948 9.75477 11.6403H10.9537C11.1717 11.6403 11.3896 11.5313 11.4986 11.4223L11.5531 11.3678C11.6076 11.3133 11.6076 11.2589 11.6076 11.1499C11.6076 11.0409 11.6621 10.9864 11.6621 10.8774C11.6621 10.6049 11.6621 10.3324 11.7166 10.0599C11.7711 9.84196 11.8256 9.62398 11.8801 9.51498C11.9346 9.40599 12.0436 9.297 12.0981 9.18801C12.2071 9.07902 12.2616 9.07902 12.2616 9.02452C12.3161 9.02452 12.3161 8.97002 12.3706 8.97002C12.5341 8.91553 12.752 8.97003 12.97 9.13351C13.188 9.297 13.406 9.51498 13.624 9.73297C13.842 9.95095 14.0599 10.2234 14.3324 10.5504C14.6049 10.8229 14.8774 11.0954 15.0409 11.2044L15.2589 11.3133C15.4223 11.4223 15.5858 11.4768 15.8038 11.5313C16.0218 11.5858 16.2398 11.6403 16.4033 11.5858L19.0736 11.5313C19.346 11.5313 19.564 11.4768 19.673 11.4223C19.8365 11.3133 19.891 11.2589 19.9455 11.1499C20 11.0409 20 10.9319 19.9455 10.7684C19.9455 10.7684 19.9455 10.6594 19.891 10.6049Z" />
  </symbol>

  <symbol id="/" viewBox="0 0 52 52">

  </symbol>

  

</svg>